<svg width="97" height="20" viewBox="0 0 97 20" fill="none" xmlns="http://www.w3.org/2000/svg">
<mask id="mask0_8695_897" style="mask-type:alpha" maskUnits="userSpaceOnUse" x="16" y="0" width="21" height="20">
<path d="M36.9176 9.99912C36.9176 15.5215 32.4353 19.9982 26.9061 19.9982C21.3768 19.9982 16.8945 15.5215 16.8945 9.99912C16.8945 4.47676 21.3768 0 26.9061 0C32.4353 0 36.9176 4.47676 36.9176 9.99912Z" fill="#D9D9D9"/>
</mask>
<g mask="url(#mask0_8695_897)">
<path d="M26.9063 19.9982C28.221 19.9982 29.5228 19.7396 30.7375 19.2371C31.9521 18.7346 33.0558 17.9981 33.9855 17.0696C34.9151 16.1411 35.6526 15.0388 36.1557 13.8256C36.6588 12.6125 36.9178 11.3122 36.9178 9.99912C36.9178 8.68601 36.6588 7.38577 36.1557 6.17262C35.6526 4.95947 34.9151 3.85718 33.9855 2.92867C33.0558 2.00017 31.9521 1.26364 30.7375 0.761137C29.5228 0.258634 28.221 -3.70465e-07 26.9062 0L26.9063 9.99912L26.9063 19.9982Z" fill="black"/>
<path d="M23.4238 0H25.165V19.9982H23.4238V0Z" fill="black"/>
<path d="M20.377 0H21.2475V19.9982H20.377V0Z" fill="black"/>
<path d="M18.2002 0H18.6349V19.9982H18.2002V0Z" fill="black"/>
</g>
<path d="M0 19.9999V17.5611L11.7629 1.72314L12.1617 2.61259H0.655077V0.00162888H14.668V2.44044L3.13298 17.9341L2.76272 17.3889H15.0098V19.9999H0Z" fill="black"/>
<path d="M40.359 19.9999V0.00162888H43.2641V17.3889H52.0079V19.9999H40.359Z" fill="black"/>
<path d="M54.5441 19.9999V0.00162888H57.4493V19.9999H54.5441Z" fill="black"/>
<path d="M61.7202 19.9999V0.00162888H64.7392L74.6224 16.2125H73.9388V0.00162888H76.8154V19.9999H73.7394L63.9417 3.76026H64.6253V19.9999H61.7202Z" fill="black"/>
<path d="M79.3414 19.9999L87.0599 0.00162888H89.31L97 19.9999H93.8385L88.1992 4.24803L82.5313 19.9999H79.3414ZM83.8985 15.5526L84.7814 12.9417H91.56L92.5284 15.5526H83.8985Z" fill="black"/>
</svg>
