<svg width="50" height="50" viewBox="0 0 50 50" fill="none" xmlns="http://www.w3.org/2000/svg">
<mask id="mask0_8695_791" style="mask-type:alpha" maskUnits="userSpaceOnUse" x="0" y="0" width="50" height="50">
<path d="M50 25C50 38.8071 38.8071 50 25 50C11.1929 50 0 38.8071 0 25C0 11.1929 11.1929 0 25 0C38.8071 0 50 11.1929 50 25Z" fill="#D9D9D9"/>
</mask>
<g mask="url(#mask0_8695_791)">
<path d="M25 50C28.2831 50 31.534 49.3534 34.5671 48.097C37.6002 46.8406 40.3562 44.9991 42.6777 42.6777C44.9991 40.3562 46.8406 37.6002 48.097 34.5671C49.3534 31.5339 50 28.283 50 25C50 21.717 49.3534 18.4661 48.097 15.4329C46.8406 12.3998 44.9991 9.64379 42.6777 7.32233C40.3562 5.00086 37.6002 3.15938 34.5671 1.90301C31.5339 0.646642 28.283 -9.26245e-07 25 0L25 25L25 50Z" fill="black"/>
<path d="M16.3047 0H20.6525V50H16.3047V0Z" fill="black"/>
<path d="M8.69629 0H10.8702V50H8.69629V0Z" fill="black"/>
<path d="M3.26074 0H4.34635V50H3.26074V0Z" fill="black"/>
</g>
</svg>
