<svg width="50" height="50" viewBox="0 0 50 50" fill="none" xmlns="http://www.w3.org/2000/svg">
<path d="M31.25 4.16653V24.9999C31.25 27.2915 29.375 29.1665 27.0833 29.1665H4.16663V4.1665C4.16663 4.1665 7.89579 4.16653 12.5 4.16653H31.25Z" stroke="black" stroke-linecap="round" stroke-linejoin="round"/>
<path d="M45.8333 29.1665V35.4165C45.8333 38.8748 43.0416 41.6665 39.5833 41.6665H37.5C37.5 39.3748 35.625 37.4998 33.3333 37.4998C31.0416 37.4998 29.1666 39.3748 29.1666 41.6665H20.8333C20.8333 39.3748 18.9583 37.4998 16.6666 37.4998C14.375 37.4998 12.5 39.3748 12.5 41.6665H10.4166C6.95829 41.6665 4.16663 38.8748 4.16663 35.4165V29.1665H27.0833C29.375 29.1665 31.25 27.2915 31.25 24.9998V10.4165H35.0833C36.5833 10.4165 37.9583 11.229 38.7083 12.5207L42.2708 18.7498H39.5833C38.4375 18.7498 37.5 19.6873 37.5 20.8332V27.0832C37.5 28.229 38.4375 29.1665 39.5833 29.1665H45.8333Z" stroke="black" stroke-linecap="round"/>
<path d="M16.6667 45.8333C18.9679 45.8333 20.8333 43.9679 20.8333 41.6667C20.8333 39.3655 18.9679 37.5 16.6667 37.5C14.3655 37.5 12.5 39.3655 12.5 41.6667C12.5 43.9679 14.3655 45.8333 16.6667 45.8333Z" stroke="black" stroke-linecap="round" stroke-linejoin="round"/>
<path d="M33.3333 45.8333C35.6345 45.8333 37.5 43.9679 37.5 41.6667C37.5 39.3655 35.6345 37.5 33.3333 37.5C31.0321 37.5 29.1666 39.3655 29.1666 41.6667C29.1666 43.9679 31.0321 45.8333 33.3333 45.8333Z" stroke="black" stroke-linecap="round" stroke-linejoin="round"/>
<path d="M45.8333 25V29.1667H39.5833C38.4375 29.1667 37.5 28.2292 37.5 27.0833V20.8333C37.5 19.6875 38.4375 18.75 39.5833 18.75H42.2709L45.8333 25Z" stroke="black" stroke-linecap="round" stroke-linejoin="round"/>
</svg>
