<svg width="52" height="52" viewBox="0 0 52 52" fill="none" xmlns="http://www.w3.org/2000/svg">
<path d="M13.8689 22.4611C13.8689 20.2 15.7022 18.3667 17.9633 18.3667C20.2245 18.3667 22.0578 20.2 22.0578 22.4611C22.0578 27.5778 13.8689 27.5778 13.8689 33.6389H22.0578" stroke="black" stroke-linecap="square"/>
<path d="M35.8114 33.6393C35.8114 33.6393 35.8114 31.2115 35.8114 30.1532H38.1309H35.8114H29.2448C28.067 30.1532 27.3253 28.8865 27.917 27.8671C29.5587 25.0421 31.4587 21.8449 33.2003 19.0282C33.9476 17.8171 35.8114 18.3615 35.8114 19.7838V30.1532" stroke="black" stroke-linecap="square"/>
<path d="M48.0361 6V14.0361H40H48.0361" stroke="black" stroke-linecap="square" stroke-linejoin="round"/>
<path d="M47.5 13.5C43.2611 5.73056 35.4778 1 26 1C12.1917 1 1 12.1944 1 26C1 39.8056 12.1917 51 26 51C39.8083 51 51 39.8056 51 26" stroke="black" stroke-linecap="square" stroke-linejoin="round"/>
</svg>
